<svg width="650" height="624" viewBox="0 0 650 624" fill="none" xmlns="http://www.w3.org/2000/svg">
<path fill-rule="evenodd" clip-rule="evenodd" d="M279.806 41.3521C298.399 78.3664 283.464 123.444 246.45 142.037C218.614 156.019 195.015 177.177 178.089 203.327C161.163 229.478 151.524 259.672 150.166 290.792C148.809 321.913 155.783 352.832 170.368 380.356C184.953 407.881 206.621 431.013 233.134 447.366C259.647 463.718 290.044 472.697 321.187 473.376C352.329 474.055 383.089 466.408 410.289 451.227C437.489 436.045 460.144 413.879 475.915 387.016C491.686 360.153 500 329.567 500 298.417C500 256.996 533.579 223.417 575 223.417C616.421 223.417 650 256.996 650 298.417C650 356.267 634.559 413.069 605.27 462.958C575.982 512.846 533.909 554.012 483.394 582.207C432.879 610.401 375.754 624.601 317.918 623.34C260.082 622.08 203.63 605.404 154.392 575.036C105.153 544.667 64.9133 501.707 37.8266 450.59C10.7398 399.472 -2.21191 342.052 0.308704 284.257C2.82933 226.461 20.7309 170.386 52.1651 121.822C83.5992 73.2567 127.427 33.9625 179.122 7.99603C216.136 -10.5962 261.214 4.33781 279.806 41.3521Z" fill="url(#paint0_angular_38_3)"/>
<defs>
<radialGradient id="paint0_angular_38_3" cx="0" cy="0" r="1" gradientUnits="userSpaceOnUse" gradientTransform="translate(325 298.417) rotate(-54.8628) scale(254.845 254.845)">
<stop offset="0.107897" stop-color="#EB5286"/>
<stop offset="0.495" stop-color="#FF00FF"/>
<stop offset="0.874798" stop-color="#4F46E5"/>
</radialGradient>
</defs>
</svg>
